<svg version="1.1" xmlns="http://www.w3.org/2000/svg" xmlns:xlink="http://www.w3.org/1999/xlink" width="1548" height="1028"><defs/><g><g transform="translate(-30,-38) scale(1,1)"><rect fill="#C0C0C0" stroke="none" x="607" y="55" width="360" height="240" opacity="0.2"/></g><g transform="translate(-30,-38) scale(1,1)"><rect fill="#ffffff" stroke="none" x="600" y="48" width="360" height="240"/></g><g transform="translate(-30,-38) scale(1,1)"><path fill="none" stroke="#000000" d="M 600 48 L 960 48 L 960 288 L 600 288 L 600 48 Z Z" stroke-miterlimit="10"/></g><g transform="translate(-30,-38) scale(1,1)"><path fill="none" stroke="#000000" d="M 600 73 L 960 73" stroke-miterlimit="10"/></g><g transform="translate(-30,-38) scale(1,1)"><path fill="none" stroke="#000000" d="M 600 96 L 960 96" stroke-miterlimit="10"/></g><g transform="translate(-30,-38) scale(1,1)"><g><path fill="none" stroke="none"/><text fill="#000000" stroke="none" font-family="Arial" font-size="13px" font-style="normal" font-weight="bold" text-decoration="none" x="768.0791015625" y="67.5">Sort</text></g></g><g transform="translate(-30,-38) scale(1,1)"><g><path fill="none" stroke="none"/><text fill="#000000" stroke="none" font-family="Arial" font-size="13px" font-style="normal" font-weight="normal" text-decoration="none" x="605" y="90.5">+liste_effet</text></g></g><g transform="translate(-30,-38) scale(1,1)"><g><path fill="none" stroke="none"/><text fill="#000000" stroke="none" font-family="Arial" font-size="13px" font-style="normal" font-weight="normal" text-decoration="none" x="605" y="113.5">+__Construct__(Effet effet1, Effet effet 2, ...)</text></g></g><g transform="translate(-30,-38) scale(1,1)"><rect fill="#C0C0C0" stroke="none" x="607" y="343" width="363" height="168" opacity="0.2"/></g><g transform="translate(-30,-38) scale(1,1)"><rect fill="#ffffff" stroke="none" x="600" y="336" width="363" height="168"/></g><g transform="translate(-30,-38) scale(1,1)"><path fill="none" stroke="#000000" d="M 600 336 L 963 336 L 963 504 L 600 504 L 600 336 Z Z" stroke-miterlimit="10"/></g><g transform="translate(-30,-38) scale(1,1)"><path fill="none" stroke="#000000" d="M 600 361 L 963 361" stroke-miterlimit="10"/></g><g transform="translate(-30,-38) scale(1,1)"><path fill="none" stroke="#000000" d="M 600 371 L 963 371" stroke-miterlimit="10"/></g><g transform="translate(-30,-38) scale(1,1)"><g><path fill="none" stroke="none"/><text fill="#000000" stroke="none" font-family="Arial" font-size="13px" font-style="italic" font-weight="bold" text-decoration="none" x="768.1318359375" y="355.5">Effet</text></g></g><g transform="translate(-30,-38) scale(1,1)"><rect fill="#C0C0C0" stroke="none" x="47" y="815" width="248" height="248" opacity="0.2"/></g><g transform="translate(-30,-38) scale(1,1)"><rect fill="#ffffff" stroke="none" x="40" y="808" width="248" height="248"/></g><g transform="translate(-30,-38) scale(1,1)"><path fill="none" stroke="#000000" d="M 40 808 L 288 808 L 288 1056 L 40 1056 L 40 808 Z Z" stroke-miterlimit="10"/></g><g transform="translate(-30,-38) scale(1,1)"><path fill="none" stroke="#000000" d="M 40 848 L 288 848" stroke-miterlimit="10"/></g><g transform="translate(-30,-38) scale(1,1)"><path fill="none" stroke="#000000" d="M 40 886 L 288 886" stroke-miterlimit="10"/></g><g transform="translate(-30,-38) scale(1,1)"><g><path fill="none" stroke="none"/><text fill="#000000" stroke="none" font-family="Arial" font-size="13px" font-style="normal" font-weight="bold" text-decoration="none" x="152.437744140625" y="827.5">Buff</text></g></g><g transform="translate(-30,-38) scale(1,1)"><g><path fill="none" stroke="none"/><text fill="#000000" stroke="none" font-family="Arial" font-size="13px" font-style="normal" font-weight="normal" text-decoration="none" x="131.496826171875" y="842.5">(from Effet)</text></g></g><g transform="translate(-30,-38) scale(1,1)"><g><path fill="none" stroke="none"/><text fill="#000000" stroke="none" font-family="Arial" font-size="13px" font-style="normal" font-weight="normal" text-decoration="none" x="45" y="865.5">+stats</text></g></g><g transform="translate(-30,-38) scale(1,1)"><g><path fill="none" stroke="none"/><text fill="#000000" stroke="none" font-family="Arial" font-size="13px" font-style="normal" font-weight="normal" text-decoration="none" x="45" y="880.5">+value</text></g></g><g transform="translate(-30,-38) scale(1,1)"><path fill="none" stroke="#000000" d="M 289 828 L 679 505" stroke-miterlimit="10"/></g><g transform="translate(-30,-38) scale(1,1)"><path fill="#FFFFFF" stroke="none" d="M 668.7163124832811 524.4485416177789 L 679 505 L 657.9761391592043 511.4805304834448"/></g><g transform="translate(-30,-38) scale(1,1)"><path fill="none" stroke="#000000" d="M 668.7163124832811 524.4485416177789 L 679 505 L 657.9761391592043 511.4805304834448 L 668.7163124832811 524.4485416177789" stroke-miterlimit="10"/></g><g transform="translate(-30,-38) scale(1,1)"><rect fill="#C0C0C0" stroke="none" x="471" y="815" width="303" height="247" opacity="0.2"/></g><g transform="translate(-30,-38) scale(1,1)"><rect fill="#ffffff" stroke="none" x="464" y="808" width="303" height="247"/></g><g transform="translate(-30,-38) scale(1,1)"><path fill="none" stroke="#000000" d="M 464 808 L 767 808 L 767 1055 L 464 1055 L 464 808 Z Z" stroke-miterlimit="10"/></g><g transform="translate(-30,-38) scale(1,1)"><path fill="none" stroke="#000000" d="M 464 833 L 767 833" stroke-miterlimit="10"/></g><g transform="translate(-30,-38) scale(1,1)"><path fill="none" stroke="#000000" d="M 464 871 L 767 871" stroke-miterlimit="10"/></g><g transform="translate(-30,-38) scale(1,1)"><g><path fill="none" stroke="none"/><text fill="#000000" stroke="none" font-family="Arial" font-size="13px" font-style="normal" font-weight="bold" text-decoration="none" x="598.155029296875" y="827.5">Degat</text></g></g><g transform="translate(-30,-38) scale(1,1)"><g><path fill="none" stroke="none"/><text fill="#000000" stroke="none" font-family="Arial" font-size="13px" font-style="normal" font-weight="normal" text-decoration="none" x="469" y="850.5">+damage_source</text></g></g><g transform="translate(-30,-38) scale(1,1)"><g><path fill="none" stroke="none"/><text fill="#000000" stroke="none" font-family="Arial" font-size="13px" font-style="normal" font-weight="normal" text-decoration="none" x="469" y="865.5">+value</text></g></g><g transform="translate(-30,-38) scale(1,1)"><path fill="none" stroke="#000000" d="M 655 807 L 753 505" stroke-miterlimit="10"/></g><g transform="translate(-30,-38) scale(1,1)"><path fill="#FFFFFF" stroke="none" d="M 754.7343611742506 526.9315296164507 L 753 505 L 738.7184452337534 521.7343118609251"/></g><g transform="translate(-30,-38) scale(1,1)"><path fill="none" stroke="#000000" d="M 754.7343611742506 526.9315296164507 L 753 505 L 738.7184452337534 521.7343118609251 L 754.7343611742506 526.9315296164507" stroke-miterlimit="10"/></g><g transform="translate(-30,-38) scale(1,1)"><rect fill="#C0C0C0" stroke="none" x="1287" y="815" width="288" height="248" opacity="0.2"/></g><g transform="translate(-30,-38) scale(1,1)"><rect fill="#ffffff" stroke="none" x="1280" y="808" width="288" height="248"/></g><g transform="translate(-30,-38) scale(1,1)"><path fill="none" stroke="#000000" d="M 1280 808 L 1568 808 L 1568 1056 L 1280 1056 L 1280 808 Z Z" stroke-miterlimit="10"/></g><g transform="translate(-30,-38) scale(1,1)"><path fill="none" stroke="#000000" d="M 1280 833 L 1568 833" stroke-miterlimit="10"/></g><g transform="translate(-30,-38) scale(1,1)"><path fill="none" stroke="#000000" d="M 1280 843 L 1568 843" stroke-miterlimit="10"/></g><g transform="translate(-30,-38) scale(1,1)"><g><path fill="none" stroke="none"/><text fill="#000000" stroke="none" font-family="Arial" font-size="13px" font-style="normal" font-weight="bold" text-decoration="none" x="1394.369140625" y="827.5">Invocation</text></g></g><g transform="translate(-30,-38) scale(1,1)"><rect fill="#C0C0C0" stroke="none" x="863" y="815" width="343" height="239" opacity="0.2"/></g><g transform="translate(-30,-38) scale(1,1)"><rect fill="#ffffff" stroke="none" x="856" y="808" width="343" height="239"/></g><g transform="translate(-30,-38) scale(1,1)"><path fill="none" stroke="#000000" d="M 856 808 L 1199 808 L 1199 1047 L 856 1047 L 856 808 Z Z" stroke-miterlimit="10"/></g><g transform="translate(-30,-38) scale(1,1)"><path fill="none" stroke="#000000" d="M 856 833 L 1199 833" stroke-miterlimit="10"/></g><g transform="translate(-30,-38) scale(1,1)"><path fill="none" stroke="#000000" d="M 856 856 L 1199 856" stroke-miterlimit="10"/></g><g transform="translate(-30,-38) scale(1,1)"><g><path fill="none" stroke="none"/><text fill="#000000" stroke="none" font-family="Arial" font-size="13px" font-style="normal" font-weight="bold" text-decoration="none" x="1014.1318359375" y="827.5">Heal</text></g></g><g transform="translate(-30,-38) scale(1,1)"><g><path fill="none" stroke="none"/><text fill="#000000" stroke="none" font-family="Arial" font-size="13px" font-style="normal" font-weight="normal" text-decoration="none" x="861" y="850.5">+value</text></g></g><g transform="translate(-30,-38) scale(1,1)"><path fill="none" stroke="#000000" d="M 969 807 L 822 505" stroke-miterlimit="10"/></g><g transform="translate(-30,-38) scale(1,1)"><path fill="#FFFFFF" stroke="none" d="M 838.4655035488247 519.5906542993671 L 822 505 L 823.325718617994 526.9600198120563"/></g><g transform="translate(-30,-38) scale(1,1)"><path fill="none" stroke="#000000" d="M 838.4655035488247 519.5906542993671 L 822 505 L 823.325718617994 526.9600198120563 L 838.4655035488247 519.5906542993671" stroke-miterlimit="10"/></g><g transform="translate(-30,-38) scale(1,1)"><path fill="none" stroke="#000000" d="M 1279 817 L 888 505" stroke-miterlimit="10"/></g><g transform="translate(-30,-38) scale(1,1)"><path fill="#FFFFFF" stroke="none" d="M 909.1383914999567 511.0965896035864 L 888 505 L 898.6361601221881 524.2580398238028"/></g><g transform="translate(-30,-38) scale(1,1)"><path fill="none" stroke="#000000" d="M 909.1383914999567 511.0965896035864 L 888 505 L 898.6361601221881 524.2580398238028 L 909.1383914999567 511.0965896035864" stroke-miterlimit="10"/></g></g></svg>